<svg id="Camada_1" data-name="Camada 1" xmlns="http://www.w3.org/2000/svg" viewBox="0 0 800 800"><defs><style>.cls-1{fill:#f7d800;}.cls-2{fill:none;stroke:#f7d800;stroke-miterlimit:10;stroke-width:36px;}</style></defs><path class="cls-1" d="M557.33,656c-40.77-.46-78-14.25-103.79-52.08-5.05-7.43-6-12,3.5-16.54a261.07,261.07,0,0,0,31.57-18.26c6.64-4.42,9.83-3.26,14.2,3.2C518.13,594.94,540,604,567,600.87c23.69-2.74,37.21-20.81,30.23-40-3.11-8.56-9.56-14.14-17.32-18-13.4-6.64-27-12.85-40.69-19-11.14-5-22.07-10.25-32.32-16.88-36.54-23.62-45.95-57-39.57-90.93,7.07-37.64,34.35-60.65,75.15-64.87,38.28-3.95,71.66,5.76,94.57,39.73,4.06,6,5.39,9.71-2.41,14a330.12,330.12,0,0,0-31.72,20.34c-6,4.25-9.28,3.81-13.33-2.71-8.72-14-22-20-38.42-18.25-11.36,1.19-20.71,6.64-23.72,18s-1.28,22.68,9.28,30.65c9.83,7.4,21.12,11.94,32.27,16.83,22.25,9.77,44.34,19.57,63.52,35.24,40.06,32.71,41.72,117-24.43,142.32C592.7,653.22,576.75,655.52,557.33,656Z"/><path class="cls-1" d="M414.69,474c-1.52,31.57,2.28,70.53-2,109.41-3.63,33.24-23.93,58.38-55.79,67.89-48.26,14.39-97.21-2.9-120.62-42-4.29-7.17-4.17-10.88,3.56-15a309.36,309.36,0,0,0,31.2-18.91c7.22-5,11.34-5,15.85,3.51,8.29,15.61,21.23,24.12,39.8,22,13.69-1.58,22.57-9.17,24.75-22.73A154.1,154.1,0,0,0,353.41,554c.15-62.9.28-125.8-.14-188.7-.06-9.21,2.45-12.09,11.56-11.52a281.36,281.36,0,0,0,36.5,0c10.25-.7,14,1.73,13.68,13.08C414.12,400.12,414.69,433.42,414.69,474Z"/><rect class="cls-2" x="73.52" y="81.38" width="652.95" height="652.95" rx="171.46"/></svg>