<svg width="36" height="36" viewBox="0 0 36 36" fill="none" xmlns="http://www.w3.org/2000/svg">
<g clip-path="url(#clip0_7401_9)">
<path d="M35.9157 8.21358C35.929 8.26128 35.9359 8.31046 35.936 8.35987V16.0402C35.936 16.1387 35.9091 16.2356 35.858 16.3209C35.8069 16.4062 35.7335 16.4769 35.645 16.526L28.9802 20.2373V27.5935C28.9802 27.7937 28.8702 27.9785 28.6907 28.0793L14.7785 35.8254C14.7467 35.8429 14.7119 35.8541 14.6772 35.866C14.6642 35.8702 14.6519 35.8779 14.6381 35.8814C14.5409 35.9061 14.4386 35.9061 14.3414 35.8814C14.3255 35.8772 14.311 35.8688 14.2958 35.8632C14.264 35.852 14.2307 35.8422 14.2003 35.8254L0.290939 28.0793C0.202577 28.0302 0.129157 27.9594 0.078079 27.8741C0.0270011 27.7889 7.0013e-05 27.692 0 27.5935L0 4.55263C0 4.50223 0.00723728 4.45323 0.0202644 4.40563C0.0246067 4.38953 0.0347389 4.37483 0.0405288 4.35873C0.0513847 4.32934 0.0615169 4.29924 0.0774389 4.27194C0.0882948 4.25374 0.104217 4.23904 0.117244 4.22224C0.13389 4.19984 0.149088 4.17674 0.168629 4.15714C0.185274 4.14104 0.206986 4.12914 0.225803 4.11514C0.246791 4.09834 0.265608 4.08014 0.289491 4.06684L7.24524 0.193797C7.3333 0.144784 7.43313 0.118988 7.53473 0.118988C7.63633 0.118988 7.73616 0.144784 7.82422 0.193797L14.7792 4.06684H14.7807C14.8039 4.08084 14.8234 4.09834 14.8444 4.11444C14.8632 4.12844 14.8842 4.14104 14.9008 4.15644C14.9211 4.17674 14.9356 4.19984 14.9529 4.22224C14.9652 4.23904 14.9819 4.25374 14.992 4.27194C15.0087 4.29994 15.0181 4.32934 15.0297 4.35873C15.0354 4.37483 15.0456 4.38953 15.0499 4.40633C15.0632 4.45404 15.0701 4.50322 15.0702 4.55263V18.9437L20.8658 15.7161V8.35918C20.8658 8.31018 20.873 8.26048 20.8861 8.21358C20.8911 8.19678 20.9005 8.18208 20.9063 8.16598C20.9179 8.13658 20.928 8.10648 20.944 8.07918C20.9548 8.06098 20.9707 8.04628 20.983 8.02948C21.0004 8.00708 21.0149 7.98398 21.0351 7.96438C21.0518 7.94828 21.0728 7.93638 21.0916 7.92238C21.1133 7.90558 21.1321 7.88738 21.1553 7.87408L28.1118 4.00104C28.1998 3.95196 28.2996 3.92612 28.4013 3.92612C28.5029 3.92612 28.6027 3.95196 28.6907 4.00104L35.6458 7.87408C35.6704 7.88808 35.6892 7.90558 35.7109 7.92168C35.729 7.93568 35.75 7.94828 35.7666 7.96368C35.7869 7.98398 35.8014 8.00708 35.8187 8.02948C35.8318 8.04628 35.8477 8.06098 35.8578 8.07918C35.8745 8.10648 35.8839 8.13658 35.8955 8.16598C35.902 8.18208 35.9114 8.19678 35.9157 8.21358ZM34.7766 15.7161V9.32936L32.3427 10.6845L28.9802 12.557V18.9437L34.7773 15.7161H34.7766ZM27.8215 27.2694V20.8785L24.5141 22.7055L15.0695 27.919V34.3701L27.8215 27.2694ZM1.15941 5.52212V27.2694L13.91 34.3694V27.9197L7.24886 24.2734L7.24669 24.272L7.24379 24.2706C7.22136 24.258 7.20254 24.2398 7.18155 24.2244C7.16346 24.2104 7.14247 24.1992 7.12655 24.1838L7.1251 24.1817C7.10628 24.1642 7.09326 24.1425 7.07733 24.1229C7.06286 24.104 7.04549 24.0879 7.03391 24.0683L7.03319 24.0662C7.02016 24.0452 7.0122 24.02 7.00279 23.9962C6.99338 23.9752 6.98108 23.9556 6.97529 23.9332C6.96805 23.9066 6.9666 23.8779 6.96371 23.8506C6.96081 23.8296 6.95502 23.8086 6.95502 23.7876V8.74977L3.59331 6.8766L1.15941 5.52212ZM7.53545 1.32638L1.74057 4.55263L7.53401 7.77888L13.3282 4.55193L7.53401 1.32638H7.53545ZM10.5491 21.4609L13.9108 19.5891V5.52212L11.4769 6.8773L8.11444 8.74977V22.8168L10.5491 21.4609ZM28.4013 5.13362L22.6071 8.35987L28.4013 11.5861L34.1947 8.35918L28.4013 5.13362ZM27.8215 12.557L24.4591 10.6845L22.0252 9.32936V15.7161L25.3869 17.5878L27.8215 18.9437V12.557ZM14.489 26.9495L22.9878 22.2568L27.236 19.9118L21.4462 16.6877L14.78 20.3997L8.70427 23.7827L14.489 26.9495Z" fill="#767676"/>
</g>
<defs>
<clipPath id="clip0_7401_9">
<rect width="36" height="36" fill="white"/>
</clipPath>
</defs>
</svg>
