<svg width="36" height="36" viewBox="0 0 36 36" fill="none" xmlns="http://www.w3.org/2000/svg">
<g clip-path="url(#clip0_7401_11)">
<path d="M33.1379 27.7439C31.1807 27.6943 29.6638 27.8932 28.3916 28.4399C28.0245 28.5889 27.4373 28.589 27.3883 29.0613C27.5841 29.2601 27.6086 29.5833 27.7798 29.8565C28.0737 30.3535 28.5872 31.0247 29.0521 31.3728C29.5658 31.7704 30.0798 32.1679 30.6178 32.5159C31.5721 33.1125 32.6487 33.4603 33.5784 34.0569C34.1168 34.4046 34.6547 34.8523 35.193 35.225C35.4622 35.4235 35.6333 35.747 35.976 35.8711V35.7967C35.8046 35.5728 35.7557 35.2498 35.5845 35.0013C35.3401 34.7527 35.0951 34.529 34.8505 34.2804C34.141 33.3113 33.2603 32.4662 32.3061 31.7704C31.5233 31.2235 29.8105 30.478 29.4925 29.5583C29.4925 29.5583 29.4679 29.5336 29.4436 29.5087C29.9817 29.459 30.6178 29.2601 31.1318 29.111C31.9636 28.8871 32.722 28.937 33.5784 28.7133C33.9697 28.6139 34.3612 28.4896 34.7526 28.3653V28.1417C34.3124 27.6943 33.9943 27.0979 33.5294 26.6753C32.2817 25.5815 30.9114 24.513 29.4925 23.6183C28.734 23.1211 27.7552 22.798 26.9479 22.3756C26.6546 22.2263 26.165 22.1519 25.9939 21.9033C25.5533 21.3566 25.3086 20.6359 24.9907 19.9897C24.2814 18.6225 23.5961 17.1066 22.9844 15.6652C22.5442 14.6958 22.2751 13.7264 21.7368 12.8318C19.2168 8.60666 16.4765 6.04672 12.2685 3.53636C11.3631 3.01451 10.2866 2.79081 9.13676 2.51753C8.52532 2.49253 7.91346 2.44296 7.30188 2.41796C6.91038 2.24396 6.51888 1.77183 6.17632 1.54812C4.78202 0.653288 1.18526 -1.28509 0.157712 1.27484C-0.502944 2.89023 1.13646 4.48076 1.69896 5.30117C2.11521 5.87273 2.65324 6.51885 2.94687 7.16512C3.11815 7.5874 3.16695 8.0351 3.33823 8.48237C3.72987 9.57563 4.09662 10.7937 4.6106 11.8129C4.87976 12.3347 5.17324 12.8814 5.5158 13.3537C5.71155 13.627 6.05398 13.7514 6.12752 14.1987C5.7851 14.6958 5.76049 15.4415 5.5646 16.0628C4.68387 18.8713 5.02657 22.3507 6.2742 24.4135C6.66556 25.0347 7.59537 26.4021 8.84313 25.8799C9.94423 25.4327 9.69954 24.016 10.0174 22.7733C10.091 22.4747 10.0421 22.2762 10.1888 22.0773V22.1272C10.5313 22.8229 10.8738 23.4941 11.1919 24.19C11.9504 25.4077 13.2714 26.6753 14.3724 27.5205C14.9598 27.9676 15.4245 28.7381 16.1586 29.0116V28.9369H16.1095C15.9627 28.7131 15.7425 28.6139 15.5469 28.4397C15.1066 27.9926 14.6171 27.4458 14.2746 26.9486C13.2472 25.5567 12.3417 24.0158 11.5344 22.4252C11.1431 21.6549 10.8004 20.8098 10.4824 20.0394C10.3354 19.7408 10.3354 19.2937 10.0909 19.1447C9.72387 19.6914 9.1857 20.1636 8.91654 20.8346C8.45191 21.9033 8.40284 23.2206 8.23155 24.5874C8.13368 24.6125 8.18248 24.5874 8.13354 24.6374C7.35082 24.4383 7.08166 23.6183 6.7879 22.9223C6.05384 21.1578 5.93149 18.3244 6.56782 16.2865C6.7391 15.7645 7.47316 14.1242 7.17954 13.6271C7.03273 13.1548 6.54321 12.8814 6.2742 12.5087C5.95624 12.0364 5.61354 11.4402 5.39346 10.918C4.80621 9.52621 4.51259 7.98524 3.87654 6.59342C3.58291 5.94715 3.06935 5.27631 2.65324 4.67976C2.18848 4.00877 1.67463 3.53636 1.3076 2.74109C1.1854 2.46781 1.01398 2.0204 1.20973 1.72212C1.25866 1.52327 1.3564 1.44884 1.55229 1.39913C1.87038 1.12556 2.77573 1.47355 3.09354 1.62269C3.99888 1.99525 4.75727 2.34353 5.5158 2.86537C5.85823 3.11394 6.22526 3.58621 6.66556 3.7105H7.1794C7.9624 3.88435 8.84299 3.76021 9.57705 3.98377C10.8739 4.40619 12.0481 5.02761 13.1003 5.69873C16.3054 7.76154 18.9475 10.6943 20.7337 14.1987C21.0273 14.7701 21.1495 15.2923 21.4187 15.8886C21.9326 17.1066 22.5687 18.3493 23.0823 19.5422C23.5961 20.7102 24.0853 21.9033 24.8194 22.8727C25.1864 23.3944 26.6543 23.668 27.3149 23.9414C27.8043 24.165 28.5628 24.364 29.0031 24.6373C29.8349 25.159 30.6667 25.7558 31.4497 26.3272C31.8412 26.6255 33.0644 27.2469 33.1379 27.7439Z" fill="#767676"/>
<path d="M8.18238 6.14584C7.76655 6.14584 7.47307 6.19584 7.17944 6.27027V6.31998H7.22838C7.42427 6.71769 7.76655 6.99111 8.0111 7.33896C8.20699 7.73652 8.37813 8.13436 8.57402 8.53207C8.59835 8.50707 8.62282 8.48236 8.62282 8.48236C8.96552 8.23365 9.13666 7.83609 9.13666 7.23953C8.98985 7.06568 8.96538 6.89168 8.84304 6.71769C8.69637 6.46898 8.37813 6.34484 8.18238 6.14584Z" fill="#767676"/>
</g>
<defs>
<clipPath id="clip0_7401_11">
<rect width="36" height="36" fill="white"/>
</clipPath>
</defs>
</svg>
