<svg width="36" height="36" viewBox="0 0 33 36" fill="none" xmlns="http://www.w3.org/2000/svg">
<path d="M16.5 10.5117C24.2666 10.5117 30.2414 14.0836 30.2414 18C30.2414 21.9164 24.2602 25.4883 16.5 25.4883C8.7334 25.4883 2.75859 21.9164 2.75859 18C2.75859 14.0836 8.73984 10.5117 16.5 10.5117ZM16.5 9.68204C8.49492 9.68204 1.99805 13.4016 1.99805 18C1.99805 22.5984 8.49492 26.318 16.5 26.318C24.5051 26.318 31.002 22.5984 31.002 18C31.002 13.4016 24.5051 9.68204 16.5 9.68204ZM11.8852 17.332C11.5242 19.3359 10.2609 19.125 8.70762 19.125L9.32637 15.6375C11.0537 15.6375 12.2203 15.4336 11.8852 17.332ZM6.41309 22.6617H8.07598L8.46914 20.4469C10.3318 20.4469 11.4855 20.5945 12.5555 19.5047C13.7414 18.3164 14.0443 16.207 13.2064 15.1524C12.7682 14.5969 12.0592 14.3297 11.0988 14.3297H7.89551L6.41309 22.6617ZM14.8307 12.1008H16.4871L16.0939 14.3156C17.5184 14.3156 18.8461 14.2031 19.4842 14.843C20.1545 15.518 19.8322 16.3758 19.1104 20.4328H17.4346C18.1307 16.5094 18.266 16.1789 18.0082 15.8836C17.7633 15.5953 17.209 15.6586 15.8619 15.6586L15.0111 20.4328H13.3547L14.8307 12.1008ZM24.8854 17.332C24.5244 19.3641 23.2225 19.125 21.7078 19.125L22.3266 15.6375C24.0604 15.6375 25.2205 15.4336 24.8854 17.332ZM19.4068 22.6617H21.0762L21.4693 20.4469C23.4287 20.4469 24.5115 20.5734 25.5557 19.5047C26.7416 18.3164 27.0445 16.207 26.2066 15.1524C25.7684 14.5969 25.0594 14.3297 24.099 14.3297H20.8957L19.4068 22.6617Z" fill="#767676"/>
</svg>
