<svg width="512" height="512" viewBox="0 0 512 512" fill="none" xmlns="http://www.w3.org/2000/svg">
<path d="M256 119.161C393.102 119.161 498.573 184.433 498.573 256C498.573 327.567 392.989 392.838 256 392.838C118.898 392.838 13.4256 327.567 13.4256 256C13.4256 184.433 119.011 119.161 256 119.161ZM256 104C114.688 104 0 171.97 0 256C0 340.029 114.688 408 256 408C397.312 408 512 340.029 512 256C512 171.97 397.312 104 256 104ZM174.536 243.793C168.163 280.411 145.862 276.558 118.442 276.558L129.365 212.828C159.857 212.828 180.451 209.102 174.536 243.793ZM77.9377 341.186H107.292L114.233 300.713C147.114 300.713 167.48 303.411 186.368 283.496C207.303 261.781 212.65 223.235 197.858 203.964C190.123 193.813 177.607 188.93 160.653 188.93H104.106L77.9377 341.186ZM226.532 148.2H255.772L248.831 188.672C273.977 188.672 297.415 186.616 308.679 198.31C320.512 210.644 314.822 226.32 302.08 300.456H272.498C284.786 228.761 287.174 222.721 282.623 217.325C278.3 212.057 268.515 213.214 244.735 213.214L229.716 300.456H200.476L226.532 148.2ZM404.025 243.793C397.652 280.927 374.67 276.558 347.932 276.558L358.855 212.828C389.461 212.828 409.941 209.102 404.025 243.793ZM307.313 341.186H336.782L343.721 300.713C378.31 300.713 397.425 303.025 415.858 283.496C436.792 261.781 442.139 223.235 427.348 203.964C419.612 193.813 407.097 188.93 390.143 188.93H333.596L307.313 341.186Z" fill="#7377AD"/>
</svg>
