<svg id="Camada_1" data-name="Camada 1" xmlns="http://www.w3.org/2000/svg" viewBox="0 0 800 800"><defs><style>.cls-1{fill:none;stroke:#2f74c0;stroke-miterlimit:10;stroke-width:36px;}.cls-2{fill:#767676;}</style></defs><rect class="cls-1" x="73.52" y="82.86" width="652.95" height="652.95" rx="171.46"/><path class="cls-2" d="M552.37,656.27c-40.78-.47-78-14.25-103.79-52.09-5.06-7.42-5.95-12,3.49-16.53a260.38,260.38,0,0,0,31.57-18.27c6.65-4.42,9.84-3.25,14.21,3.2,15.32,22.64,37.23,31.7,64.18,28.58,23.7-2.75,37.22-20.82,30.24-40-3.11-8.55-9.56-14.13-17.32-18-13.41-6.64-27-12.86-40.7-18.95-11.13-5-22.06-10.25-32.32-16.88-36.53-23.63-45.94-57-39.56-90.94,7.07-37.63,34.35-60.65,75.14-64.86,38.28-4,71.67,5.76,94.58,39.73,4.06,6,5.38,9.7-2.42,14A328.74,328.74,0,0,0,598,425.58c-6,4.24-9.28,3.81-13.33-2.71-8.72-14.05-22-20-38.42-18.25-11.36,1.19-20.71,6.64-23.72,17.95-3,11.47-1.28,22.69,9.28,30.65,9.82,7.41,21.12,11.95,32.26,16.84,22.26,9.77,44.34,19.57,63.53,35.24,40.06,32.71,41.72,117-24.43,142.32C587.74,653.51,571.79,655.81,552.37,656.27Z"/><path class="cls-2" d="M368.13,416.7h71.81a4.9,4.9,0,0,0,4.91-4.9V369.32a4.9,4.9,0,0,0-4.91-4.9H221.47a4.9,4.9,0,0,0-4.9,4.9V411.8a4.9,4.9,0,0,0,4.9,4.9h71.81a4.91,4.91,0,0,1,4.91,4.91V645.18a4.9,4.9,0,0,0,4.9,4.9h55.23a4.9,4.9,0,0,0,4.91-4.9V421.61A4.9,4.9,0,0,1,368.13,416.7Z"/></svg>